<?xml version="1.0" standalone="no"?>
<!DOCTYPE svg PUBLIC "-//W3C//DTD SVG 20010904//EN"
 "http://www.w3.org/TR/2001/REC-SVG-20010904/DTD/svg10.dtd">
<svg version="1.0" xmlns="http://www.w3.org/2000/svg"
 width="2000.000000pt" height="1500.000000pt" viewBox="0 0 2000.000000 1500.000000"
 preserveAspectRatio="xMidYMid meet">

<g transform="translate(0.000000,1500.000000) scale(0.100000,-0.100000)"
fill="#000000" stroke="none">
<path d="M9693 11956 c-256 -97 -442 -183 -559 -261 -45 -30 -85 -55 -87 -55
-3 0 -5 42 -4 93 l2 92 -26 3 c-21 2 -45 -15 -125 -89 -195 -180 -220 -195
-314 -180 -193 31 -423 -113 -505 -316 -31 -76 -48 -81 -238 -65 -207 18 -211
16 -407 -158 -152 -135 -656 -636 -684 -680 -12 -19 -37 -78 -55 -130 -18 -52
-44 -115 -59 -140 -25 -44 -207 -231 -453 -465 -242 -231 -350 -403 -434 -695
-52 -182 -77 -321 -182 -1002 -5 -32 6 -61 85 -220 141 -284 218 -495 267
-733 40 -194 33 -235 -44 -235 l-38 0 -7 -57 c-3 -32 -2 -105 4 -161 12 -125
17 -140 260 -687 191 -432 306 -712 367 -897 21 -65 42 -118 47 -118 28 0 97
-46 119 -78 25 -35 33 -60 72 -230 54 -235 194 -446 354 -530 109 -59 133 -64
336 -72 222 -8 266 -20 358 -98 61 -52 170 -110 257 -137 30 -9 104 -19 164
-22 l109 -6 220 -114 c272 -141 328 -172 444 -245 51 -32 101 -58 113 -58 11
0 30 10 41 21 28 28 39 12 39 -62 l0 -55 99 12 c482 62 898 58 1176 -12 89
-22 105 -24 150 -13 126 31 255 5 422 -87 90 -50 163 -69 197 -52 15 8 17 17
12 49 l-6 40 54 25 c62 28 318 86 344 77 9 -3 51 -41 92 -84 41 -44 82 -79 91
-79 13 0 17 15 21 79 8 130 32 151 179 151 l89 0 0 71 c0 68 21 139 40 139 5
0 64 61 131 135 117 130 212 217 266 246 25 13 28 11 94 -61 66 -73 69 -74 69
-45 0 54 -34 127 -88 188 -29 32 -52 66 -50 75 2 9 34 26 84 43 126 42 151 44
205 16 l46 -23 -14 33 c-28 68 26 101 179 112 96 6 101 8 128 38 31 34 50 88
50 141 0 27 17 54 98 150 341 406 549 764 771 1330 25 64 18 62 -74 -19 -76
-66 -154 -155 -210 -240 -67 -102 -106 -126 -152 -94 -21 15 -22 14 -49 -72
-37 -115 -47 -125 -38 -35 3 39 4 72 0 72 -4 0 -67 -47 -139 -103 -433 -339
-899 -679 -1283 -935 -277 -185 -295 -195 -350 -196 -45 -1 -73 17 -104 67
l-17 28 -49 -44 c-61 -55 -89 -70 -114 -62 -22 7 -35 43 -28 78 4 21 1 22 -66
24 -79 3 -98 -7 -116 -63 -15 -44 -33 -43 -61 3 l-22 38 -8 -35 c-4 -19 -10
-57 -14 -85 -8 -50 -8 -50 -17 -18 -4 18 -13 35 -18 38 -11 7 -57 -36 -75 -69
-10 -17 -14 -14 -43 30 -17 27 -47 67 -67 89 l-35 40 15 -44 c26 -77 14 -121
-24 -87 -18 16 -19 14 -23 -40 -4 -41 -10 -59 -23 -67 -11 -6 -46 -36 -79 -67
l-61 -56 -135 -12 c-138 -13 -305 -42 -396 -67 -50 -14 -57 -14 -195 20 -276
66 -569 112 -894 140 -99 9 -214 23 -255 31 -162 33 -365 115 -533 217 l-58
34 31 13 c46 19 80 65 80 108 -1 30 -3 34 -11 19 -15 -25 -54 -43 -141 -62
l-78 -17 -88 84 c-49 45 -226 211 -393 367 -482 451 -645 610 -802 778 -256
276 -284 321 -427 678 -40 99 -83 201 -96 227 -24 48 -24 48 -44 28 -38 -38
-86 -15 -116 56 -30 73 -8 134 50 134 17 0 38 -6 45 -12 11 -11 12 -7 7 17
-25 131 -87 620 -84 661 3 34 22 87 58 164 l53 113 63 574 c77 697 101 817
220 1101 167 400 422 715 1016 1258 225 206 214 198 658 460 577 340 855 460
1220 524 101 18 181 23 415 29 267 5 293 8 329 27 61 31 80 78 84 204 l4 105
-59 0 c-55 0 -64 3 -117 45 -92 71 -140 100 -177 105 -26 4 -86 -14 -256 -79z
m-3380 -5723 c13 -21 42 -83 66 -138 24 -55 54 -117 67 -137 29 -45 18 -48
-43 -13 -50 30 -71 65 -83 143 -6 31 -23 83 -40 115 -36 68 -35 67 -10 67 12
0 29 -14 43 -37z m-104 -70 c16 -54 29 -99 27 -100 -2 -2 -31 31 -65 73 -61
73 -62 76 -46 100 8 13 24 24 34 24 16 0 25 -19 50 -97z"/>
<path d="M11160 11728 c-18 -13 -42 -40 -52 -60 l-19 -36 -34 14 c-42 17 -221
19 -280 3 -22 -6 -56 -28 -76 -48 -124 -124 -31 -297 224 -416 98 -47 213 -75
332 -82 114 -7 104 -2 320 -131 222 -133 570 -368 1034 -700 394 -281 395
-282 446 -282 39 0 70 9 134 40 45 22 87 40 92 40 5 0 9 -39 9 -87 0 -49 7
-117 14 -153 15 -68 91 -282 125 -347 26 -51 85 -112 160 -162 121 -83 178
-202 168 -355 -2 -44 -12 -107 -21 -138 l-17 -57 45 -89 c90 -173 207 -328
308 -408 56 -44 58 -47 58 -92 0 -54 27 -115 53 -120 10 -2 32 11 52 31 l35
35 0 -26 c0 -15 -7 -85 -16 -157 -18 -144 -21 -391 -6 -445 l10 -35 1 40 c5
183 77 597 135 775 19 58 32 106 31 108 -8 9 -45 -25 -69 -64 -29 -46 -73 -87
-88 -82 -5 2 -11 80 -13 173 -6 207 -25 405 -70 763 l-35 272 -457 732 c-455
728 -458 732 -566 845 -291 302 -671 527 -1112 657 -196 58 -266 66 -560 66
-255 0 -263 -1 -295 -22z"/>
<path d="M9863 9989 c-613 -57 -1111 -502 -1248 -1114 -25 -110 -30 -379 -11
-500 40 -242 173 -523 345 -725 81 -95 1036 -1168 1043 -1172 6 -2 901 998
1049 1172 173 204 304 481 345 729 20 124 15 382 -11 496 -97 438 -384 799
-785 989 -214 101 -485 148 -727 125z m372 -214 c455 -96 811 -431 930 -877
145 -543 -108 -1122 -604 -1381 -354 -185 -772 -186 -1126 -4 -228 118 -407
303 -525 542 -133 268 -162 556 -85 843 127 475 513 816 1010 892 86 13 306 5
400 -15z"/>
<path d="M9840 9719 c-153 -20 -357 -99 -491 -190 -81 -55 -207 -176 -270
-258 -66 -87 -153 -264 -185 -376 -75 -263 -49 -551 71 -802 58 -121 111 -199
204 -295 101 -107 185 -168 316 -233 202 -101 411 -139 624 -116 683 74 1147
714 1001 1381 -126 578 -679 965 -1270 889z m838 -259 c97 -76 227 -224 268
-302 l15 -28 -966 0 c-531 0 -965 3 -965 6 0 3 23 40 52 81 59 85 147 179 226
241 l54 42 633 0 633 0 50 -40z m-593 -480 l69 -120 138 0 c88 0 138 -4 138
-10 0 -6 -30 -62 -66 -125 l-66 -115 66 -113 c36 -63 66 -116 66 -120 0 -4
-62 -8 -137 -9 l-137 -3 -70 -122 c-39 -68 -73 -123 -76 -123 -3 1 -37 56 -75
123 l-70 122 -138 3 c-75 1 -137 5 -137 8 0 3 30 56 66 120 l67 114 -67 115
c-36 63 -66 120 -66 125 0 6 54 10 139 10 l140 0 68 120 c37 66 70 120 73 120
3 0 37 -54 75 -120z m875 -938 c0 -16 -76 -127 -128 -186 -29 -32 -82 -85
-119 -117 l-68 -59 -649 0 -649 0 -66 54 c-36 30 -87 79 -113 109 -58 67 -138
181 -138 196 0 8 264 11 965 11 531 0 965 -4 965 -8z"/>
<path d="M9983 8910 c-13 -21 -23 -41 -23 -44 0 -4 23 -6 50 -6 28 0 50 3 50
6 0 10 -43 84 -49 84 -3 0 -16 -18 -28 -40z"/>
<path d="M9737 8734 c25 -44 27 -46 40 -28 8 11 21 31 29 47 l15 27 -55 0 -55
0 26 -46z"/>
<path d="M9857 8695 l-48 -85 48 -82 49 -83 104 -3 105 -2 48 85 48 85 -48 85
-48 85 -105 0 -105 -1 -48 -84z"/>
<path d="M10222 8741 c13 -21 26 -40 31 -42 4 -2 19 15 33 39 l25 42 -56 0
-56 0 23 -39z"/>
<path d="M9737 8486 l-26 -46 55 0 55 0 -15 28 c-8 15 -21 35 -29 46 -13 18
-15 16 -40 -28z"/>
<path d="M10239 8509 c-6 -13 -19 -34 -27 -46 -14 -23 -14 -23 43 -23 l57 0
-23 38 c-33 54 -36 56 -50 31z"/>
<path d="M9977 8320 c15 -27 31 -50 34 -50 3 0 18 23 33 50 l27 50 -61 0 -61
0 28 -50z"/>
<path d="M8740 6260 c0 -5 21 -10 48 -10 26 0 53 -4 60 -8 10 -7 12 -132 10
-593 l-3 -584 -57 -3 c-43 -2 -58 -7 -58 -17 0 -13 26 -15 150 -15 124 0 150
2 150 15 0 10 -15 15 -57 17 l-58 3 -3 505 c-1 280 2 500 6 495 5 -6 100 -241
212 -522 l203 -513 33 0 c30 0 34 4 52 53 78 206 385 994 392 1007 6 9 9 -192
7 -505 l-2 -520 -57 -3 c-43 -2 -58 -7 -58 -17 0 -13 32 -15 200 -15 171 0
200 2 200 15 0 12 -13 15 -60 15 l-60 0 0 589 c0 659 -7 601 76 601 24 0 44 5
44 10 0 6 -54 10 -142 10 l-143 0 -195 -506 c-107 -278 -198 -508 -201 -510
-3 -2 -96 225 -206 504 l-200 507 -142 3 c-92 2 -141 -1 -141 -8z"/>
<path d="M10250 6260 c0 -5 22 -10 49 -10 87 0 81 42 81 -588 0 -306 -3 -567
-6 -579 -6 -21 -13 -23 -65 -23 -46 0 -59 -3 -59 -15 0 -13 29 -15 200 -15
168 0 200 2 200 15 0 10 -15 15 -57 17 l-58 3 -3 579 c-1 419 1 583 9 592 7 8
31 14 60 14 27 0 49 5 49 10 0 6 -73 10 -200 10 -127 0 -200 -4 -200 -10z"/>
<path d="M10950 6260 c0 -5 20 -10 45 -10 25 0 45 -4 45 -8 0 -4 -103 -134
-230 -287 -138 -168 -230 -288 -230 -301 0 -18 8 -22 45 -27 51 -7 112 -36
136 -63 33 -38 61 -108 99 -254 42 -161 58 -199 99 -243 38 -42 79 -60 136
-61 95 -1 155 59 155 155 0 50 -5 60 -25 53 -9 -4 -12 -16 -8 -37 10 -65 -40
-126 -91 -113 -41 10 -65 59 -105 215 -22 82 -50 174 -64 204 -50 109 -131
170 -242 183 -31 4 -54 10 -53 15 10 27 456 553 476 560 13 5 34 9 48 9 13 0
24 5 24 10 0 6 -50 10 -130 10 -80 0 -130 -4 -130 -10z"/>
</g>
</svg>
