<?xml version="1.0" standalone="no"?>
<!DOCTYPE svg PUBLIC "-//W3C//DTD SVG 20010904//EN"
 "http://www.w3.org/TR/2001/REC-SVG-20010904/DTD/svg10.dtd">
<svg version="1.0" xmlns="http://www.w3.org/2000/svg"
 width="2000.000000pt" height="1500.000000pt" viewBox="0 0 2000.000000 1500.000000"
 preserveAspectRatio="xMidYMid meet">

<g transform="translate(0.000000,1500.000000) scale(0.100000,-0.100000)"
fill="#ffffff" stroke="none">
<path d="M9693 11956 c-256 -97 -442 -183 -559 -261 -45 -30 -85 -55 -87 -55
-3 0 -5 42 -4 93 l2 92 -26 3 c-21 2 -45 -15 -125 -89 -195 -180 -220 -195
-314 -180 -193 31 -423 -113 -505 -316 -31 -76 -48 -81 -238 -65 -207 18 -211
16 -407 -158 -152 -135 -656 -636 -684 -680 -12 -19 -37 -78 -55 -130 -18 -52
-44 -115 -59 -140 -25 -44 -207 -231 -453 -465 -242 -231 -350 -403 -434 -695
-52 -182 -77 -321 -182 -1002 -5 -32 6 -61 85 -220 141 -284 218 -495 267
-733 40 -194 33 -235 -44 -235 l-38 0 -7 -57 c-3 -32 -2 -105 4 -161 12 -125
17 -140 260 -687 191 -432 306 -712 367 -897 21 -65 42 -118 47 -118 28 0 97
-46 119 -78 25 -35 33 -60 72 -230 54 -235 194 -446 354 -530 109 -59 133 -64
336 -72 222 -8 266 -20 358 -98 61 -52 170 -110 257 -137 30 -9 104 -19 164
-22 l109 -6 220 -114 c272 -141 328 -172 444 -245 51 -32 101 -58 113 -58 11
0 30 10 41 21 28 28 39 12 39 -62 l0 -55 99 12 c482 62 898 58 1176 -12 89
-22 105 -24 150 -13 126 31 255 5 422 -87 90 -50 163 -69 197 -52 15 8 17 17
12 49 l-6 40 54 25 c62 28 318 86 344 77 9 -3 51 -41 92 -84 41 -44 82 -79 91
-79 13 0 17 15 21 79 8 130 32 151 179 151 l89 0 0 71 c0 68 21 139 40 139 5
0 64 61 131 135 117 130 212 217 266 246 25 13 28 11 94 -61 66 -73 69 -74 69
-45 0 54 -34 127 -88 188 -29 32 -52 66 -50 75 2 9 34 26 84 43 126 42 151 44
205 16 l46 -23 -14 33 c-28 68 26 101 179 112 96 6 101 8 128 38 31 34 50 88
50 141 0 27 17 54 98 150 341 406 549 764 771 1330 25 64 18 62 -74 -19 -76
-66 -154 -155 -210 -240 -67 -102 -106 -126 -152 -94 -21 15 -22 14 -49 -72
-37 -115 -47 -125 -38 -35 3 39 4 72 0 72 -4 0 -67 -47 -139 -103 -433 -339
-899 -679 -1283 -935 -277 -185 -295 -195 -350 -196 -45 -1 -73 17 -104 67
l-17 28 -49 -44 c-61 -55 -89 -70 -114 -62 -22 7 -35 43 -28 78 4 21 1 22 -66
24 -79 3 -98 -7 -116 -63 -15 -44 -33 -43 -61 3 l-22 38 -8 -35 c-4 -19 -10
-57 -14 -85 -8 -50 -8 -50 -17 -18 -4 18 -13 35 -18 38 -11 7 -57 -36 -75 -69
-10 -17 -14 -14 -43 30 -17 27 -47 67 -67 89 l-35 40 15 -44 c26 -77 14 -121
-24 -87 -18 16 -19 14 -23 -40 -4 -41 -10 -59 -23 -67 -11 -6 -46 -36 -79 -67
l-61 -56 -135 -12 c-138 -13 -305 -42 -396 -67 -50 -14 -57 -14 -195 20 -276
66 -569 112 -894 140 -99 9 -214 23 -255 31 -162 33 -365 115 -533 217 l-58
34 31 13 c46 19 80 65 80 108 -1 30 -3 34 -11 19 -15 -25 -54 -43 -141 -62
l-78 -17 -88 84 c-49 45 -226 211 -393 367 -482 451 -645 610 -802 778 -256
276 -284 321 -427 678 -40 99 -83 201 -96 227 -24 48 -24 48 -44 28 -38 -38
-86 -15 -116 56 -30 73 -8 134 50 134 17 0 38 -6 45 -12 11 -11 12 -7 7 17
-25 131 -87 620 -84 661 3 34 22 87 58 164 l53 113 63 574 c77 697 101 817
220 1101 167 400 422 715 1016 1258 225 206 214 198 658 460 577 340 855 460
1220 524 101 18 181 23 415 29 267 5 293 8 329 27 61 31 80 78 84 204 l4 105
-59 0 c-55 0 -64 3 -117 45 -92 71 -140 100 -177 105 -26 4 -86 -14 -256 -79z
m-3380 -5723 c13 -21 42 -83 66 -138 24 -55 54 -117 67 -137 29 -45 18 -48
-43 -13 -50 30 -71 65 -83 143 -6 31 -23 83 -40 115 -36 68 -35 67 -10 67 12
0 29 -14 43 -37z m-104 -70 c16 -54 29 -99 27 -100 -2 -2 -31 31 -65 73 -61
73 -62 76 -46 100 8 13 24 24 34 24 16 0 25 -19 50 -97z"/>
<path d="M11160 11728 c-18 -13 -42 -40 -52 -60 l-19 -36 -34 14 c-42 17 -221
19 -280 3 -22 -6 -56 -28 -76 -48 -124 -124 -31 -297 224 -416 98 -47 213 -75
332 -82 114 -7 104 -2 320 -131 222 -133 570 -368 1034 -700 394 -281 395
-282 446 -282 39 0 70 9 134 40 45 22 87 40 92 40 5 0 9 -39 9 -87 0 -49 7
-117 14 -153 15 -68 91 -282 125 -347 26 -51 85 -112 160 -162 121 -83 178
-202 168 -355 -2 -44 -12 -107 -21 -138 l-17 -57 45 -89 c90 -173 207 -328
308 -408 56 -44 58 -47 58 -92 0 -54 27 -115 53 -120 10 -2 32 11 52 31 l35
35 0 -26 c0 -15 -7 -85 -16 -157 -18 -144 -21 -391 -6 -445 l10 -35 1 40 c5
183 77 597 135 775 19 58 32 106 31 108 -8 9 -45 -25 -69 -64 -29 -46 -73 -87
-88 -82 -5 2 -11 80 -13 173 -6 207 -25 405 -70 763 l-35 272 -457 732 c-455
728 -458 732 -566 845 -291 302 -671 527 -1112 657 -196 58 -266 66 -560 66
-255 0 -263 -1 -295 -22z"/>
<path d="M9879 9990 c-259 -29 -536 -171 -696 -357 -183 -213 -273 -451 -273
-723 0 -224 67 -431 204 -629 56 -82 870 -1003 883 -1000 20 5 838 938 886
1012 137 207 197 394 197 617 0 520 -361 962 -870 1063 -100 20 -238 27 -331
17z m346 -175 c115 -29 188 -62 290 -130 150 -99 283 -263 348 -427 53 -132
62 -182 62 -353 0 -137 -3 -171 -23 -239 -50 -174 -130 -307 -257 -431 -174
-169 -409 -265 -650 -265 -109 0 -192 15 -308 54 -129 44 -242 114 -342 211
-126 123 -207 257 -255 426 -28 95 -38 289 -21 395 32 198 130 383 278 525
237 229 560 315 878 234z"/>
<path d="M9857 9780 c-352 -64 -626 -313 -718 -655 -31 -114 -31 -326 0 -440
44 -162 125 -299 247 -416 174 -166 366 -243 609 -243 257 0 465 91 642 277
334 355 319 900 -33 1238 -118 112 -238 180 -389 220 -90 23 -279 34 -358 19z
m655 -187 c87 -70 183 -177 217 -240 l12 -23 -746 0 -746 0 23 41 c29 52 127
160 191 211 l49 38 483 0 483 0 34 -27z m-447 -381 l50 -87 108 -3 c76 -2 107
-6 107 -15 0 -7 -23 -50 -50 -96 l-49 -85 31 -55 c18 -31 40 -69 50 -86 32
-53 28 -55 -89 -55 l-108 0 -50 -90 c-27 -49 -53 -90 -57 -90 -4 0 -30 41 -59
90 l-51 90 -109 0 c-60 0 -109 3 -109 7 0 4 23 47 50 95 28 48 50 91 50 95 0
5 -23 46 -50 93 -28 47 -50 88 -50 92 0 5 49 8 110 8 103 0 110 1 121 23 34
65 91 157 97 157 4 0 30 -40 57 -88z m675 -730 c0 -14 -79 -123 -118 -166 -21
-21 -59 -56 -85 -77 l-49 -39 -493 0 c-489 0 -492 0 -521 22 -73 55 -162 153
-217 241 l-17 27 750 0 c412 0 750 -4 750 -8z"/>
<path d="M9990 9163 c-8 -15 -16 -31 -18 -35 -2 -5 15 -8 38 -8 43 0 44 5 8
53 -13 18 -15 17 -28 -10z"/>
<path d="M9780 9053 c0 -5 8 -21 19 -36 19 -30 25 -27 50 21 11 21 10 22 -29
22 -22 0 -40 -3 -40 -7z"/>
<path d="M9895 8999 c-20 -34 -37 -65 -38 -69 -1 -4 13 -35 32 -68 l35 -62 82
0 83 0 36 61 c20 34 35 64 33 68 -2 3 -19 34 -38 69 l-35 62 -77 0 -77 0 -36
-61z"/>
<path d="M10160 9055 c0 -4 7 -20 16 -37 16 -31 17 -31 31 -12 37 49 37 54 -7
54 -22 0 -40 -2 -40 -5z"/>
<path d="M9797 8831 l-18 -31 35 0 c40 0 44 8 18 39 l-17 22 -18 -30z"/>
<path d="M10176 8832 l-17 -32 36 0 c40 0 42 5 16 39 l-19 24 -16 -31z"/>
<path d="M9970 8725 c0 -2 8 -18 19 -35 l18 -31 21 35 21 36 -39 0 c-22 0 -40
-2 -40 -5z"/>
<path d="M8050 6950 c0 -18 7 -20 69 -20 38 0 81 -4 95 -10 l26 -10 0 -898 c0
-685 -3 -901 -12 -910 -7 -7 -44 -12 -95 -12 -82 0 -83 0 -83 -25 l0 -25 235
0 235 0 0 25 c0 25 -1 25 -78 25 -47 0 -83 5 -90 12 -9 9 -12 196 -11 782 0
550 3 765 11 749 6 -12 151 -374 322 -805 l311 -783 51 -3 50 -3 318 823 c175
453 322 827 327 833 13 13 12 -1561 -1 -1586 -9 -16 -22 -19 -95 -19 -84 0
-85 0 -85 -25 l0 -25 310 0 310 0 0 25 c0 25 -1 25 -83 25 -51 0 -88 5 -95 12
-9 9 -12 224 -12 904 l0 893 22 15 c15 11 46 16 95 16 66 0 73 2 73 20 0 19
-7 20 -218 20 l-218 0 -299 -772 c-164 -425 -302 -782 -308 -792 -8 -16 -11
-17 -18 -4 -7 13 -502 1262 -590 1491 l-30 77 -220 0 c-212 0 -219 -1 -219
-20z"/>
<path d="M10390 6950 c0 -18 7 -20 69 -20 38 0 81 -4 95 -10 l26 -10 0 -898
c0 -685 -3 -901 -12 -910 -7 -7 -44 -12 -95 -12 -82 0 -83 0 -83 -25 l0 -25
310 0 310 0 0 25 c0 24 -2 25 -74 25 -41 0 -81 3 -90 6 -14 6 -16 95 -16 910
0 1038 -13 924 109 924 64 0 71 2 71 20 0 20 -7 20 -310 20 -303 0 -310 0
-310 -20z"/>
<path d="M11470 6950 c0 -18 7 -20 70 -20 41 0 70 -4 70 -10 0 -6 -162 -207
-360 -448 -301 -366 -360 -442 -360 -468 l0 -31 70 -6 c147 -12 240 -87 301
-240 12 -28 45 -146 75 -261 60 -233 93 -315 151 -373 120 -120 327 -117 410
6 33 49 46 107 39 175 -3 33 -7 61 -9 62 -2 2 -13 1 -25 -3 -20 -5 -22 -12
-22 -75 0 -106 -37 -158 -111 -158 -49 0 -90 35 -119 101 -12 29 -46 147 -76
263 -67 262 -107 351 -203 447 -76 76 -136 103 -270 123 l-83 12 357 432 c385
466 371 452 468 452 30 0 37 4 37 20 0 19 -7 20 -205 20 -198 0 -205 -1 -205
-20z"/>
</g>
</svg>
